<svg width="25" height="25" viewBox="0 0 25 25" fill="none" xmlns="http://www.w3.org/2000/svg">
<path d="M12.1094 0C5.42139 0 0 5.42139 0 12.1094C0 18.7974 5.42139 24.2188 12.1094 24.2188C18.7974 24.2188 24.2188 18.7974 24.2188 12.1094C24.2188 5.42139 18.7974 0 12.1094 0ZM19.9219 10.5225V10.8608C19.9219 11.1475 19.7598 11.4097 19.5034 11.5376L18.752 11.9136C18.6326 11.9733 18.4996 12.0004 18.3664 11.9921C18.2332 11.9837 18.1046 11.9403 17.9937 11.8662L17.1045 11.2734C17.0086 11.2096 16.8993 11.1684 16.7851 11.1531C16.6709 11.1378 16.5547 11.1487 16.4453 11.1851L16.3159 11.228C15.8423 11.3857 15.6489 11.9502 15.9258 12.3657L16.5723 13.3354C16.7124 13.5459 16.9487 13.6724 17.2017 13.6724H17.6025C18.0205 13.6724 18.3594 14.0112 18.3594 14.4292V14.9829C18.3594 15.1465 18.3062 15.3062 18.208 15.437L17.293 16.6567C17.2236 16.7495 17.1763 16.8569 17.1548 16.9707L16.9448 18.0854C16.9146 18.2461 16.833 18.3926 16.7124 18.5034C16.2497 18.9272 15.8398 19.4052 15.4917 19.9272L14.8555 20.8818C14.7317 21.0675 14.5641 21.2197 14.3674 21.3249C14.1707 21.4302 13.9511 21.4853 13.728 21.4854C13.2148 21.4854 12.7456 21.1953 12.5161 20.7363C12.2486 20.2013 12.1093 19.6114 12.1094 19.0132V17.5537C12.1094 17.1357 11.7705 16.7969 11.3525 16.7969H10.0889C9.38135 16.7969 8.70313 16.5156 8.20264 16.0156C7.70252 15.5153 7.42152 14.8368 7.42139 14.1294V13.4429C7.42139 12.6035 7.81689 11.813 8.48828 11.3091L9.83496 10.2988C10.2967 9.95254 10.8583 9.76529 11.4355 9.76514H11.479C11.8931 9.76514 12.3018 9.86133 12.6719 10.0469L13.3906 10.4062C13.5703 10.4961 13.7778 10.5107 13.9683 10.4473L16.2783 9.67725C16.5874 9.57422 16.7959 9.28516 16.7959 8.95947C16.7959 8.5415 16.457 8.20264 16.0391 8.20264H15.5464C15.3457 8.20264 15.1533 8.12305 15.0112 7.98096L14.6733 7.64307C14.6031 7.57277 14.5196 7.51701 14.4278 7.47898C14.336 7.44094 14.2376 7.42137 14.1382 7.42139H9.74121C9.32324 7.42139 8.98438 7.08252 8.98438 6.66455V6.44971C8.98438 6.10254 9.2207 5.7998 9.55762 5.71533L10.2632 5.53906C10.4458 5.49316 10.605 5.38135 10.7095 5.22461L11.104 4.6333C11.2441 4.42285 11.4805 4.29639 11.7334 4.29639H12.9155C13.3335 4.29639 13.6724 3.95752 13.6724 3.53955V2.47998C17.5405 3.10693 20.6475 6.00684 21.5786 9.76562H20.6787C20.2607 9.76562 19.9219 10.1045 19.9219 10.5225Z" fill="white"/>
</svg>
